<svg xmlns="http://www.w3.org/2000/svg" id="Layer_2" data-name="Layer 2" viewBox="0 0 392.55 253.07"><defs><style>      .cls-1 {        fill: #d8b230;      }      .cls-1, .cls-2 {        stroke-width: 0px;      }      .cls-2 {        fill: #231f20;      }    </style></defs><g id="Layer_1-2" data-name="Layer 1"><g><path class="cls-1" d="M50.17,81.97S-4.19,116.72.26,172.87c0,0-.88,41.88,49,80.2,0,0,45.46-24.06,50.82-80.2,0,0,4.46-55.26-49.91-90.9"></path><path class="cls-1" d="M25.55,102.13C44.49,72.77,102.54.05,212.59.05c0,0-109.71,22.82-139.09,99.43-16.15-16.79-23.43-19.45-23.43-19.45,0,0-11.16,6.99-24.52,22.11"></path><path class="cls-1" d="M317.47,41.02s-118.05,44.01-226.08-5.08l-10.77,8.07s108.02,58.96,246.87,5.25l-10.02-8.25Z"></path><path class="cls-1" d="M212.59.05s-69.94,31.63-89.63,113.52l14.78-.45S155.19,33.01,212.59.05"></path><path class="cls-1" d="M212.59.05s99.73-5.77,168.13,113.07h-22.83S317.62,28.53,212.59.05"></path><path class="cls-1" d="M212.59.05s44.75,10.37,88.48,113.52h-16.11S259.45,20.19,212.59.05"></path><rect class="cls-1" x="108.57" y="195.53" width="283.98" height="40.35"></rect><path class="cls-2" d="M171.07,131.89c-.5-.51-1.2-1.3-2.11-2.38-1.02-1.26-1.93-2.3-2.73-3.14-.81-.83-1.75-1.53-2.83-2.07-2.09-1.01-4.25-1.76-6.46-2.24-2.22-.48-4.61-.72-7.18-.72-4.49,0-8.54.76-12.19,2.29-3.65,1.53-6.76,3.69-9.33,6.51-2.56,2.81-4.53,6.12-5.88,9.94-1.33,3.83-2.01,8.02-2.01,12.57s.76,8.82,2.27,13.01c1.54,4.19,3.61,7.89,6.24,11.12,2.64,3.22,5.66,5.75,9.11,7.56,3.43,1.83,7.01,2.74,10.72,2.74,1.86,0,3.77-.13,5.78-.4,2-.27,4.03-.69,6.05-1.31,4.67-1.35,8.32-3.33,10.94-5.9.31-.24.69-.69,1.17-1.35.71-.9,1.34-1.59,1.88-2.07.53-.49,1.1-.72,1.71-.72.71,0,1.25.14,1.61.37.36.23.57.44.63.63,0,.29-.22.97-.67,2.02-.44,1.05-1.06,2.34-1.83,3.89-.48.97-.81,1.66-.99,2.08-.6,1.43-1.98,2.63-4.13,3.58-3.53,1.73-7.28,2.99-11.25,3.77-3.97.78-8.32,1.17-13.05,1.17-5.32,0-10.36-.99-15.11-2.96-4.76-1.98-8.93-4.73-12.52-8.25-3.58-3.53-6.38-7.58-8.38-12.2-2-4.6-3.01-9.42-3.01-14.44s.96-9.96,2.91-14.67c1.94-4.69,4.72-8.86,8.3-12.51,3.59-3.63,7.88-6.51,12.88-8.57,4.98-2.06,10.44-3.09,16.36-3.09,2.21,0,4.67.17,7.35.5,2.69.33,5.45.75,8.25,1.29.12,0,.75.12,1.89.35,2.15.48,3.65.72,4.48.72,0-.12.19-.24.58-.36.39-.11.94-.17,1.65-.17,1.07,0,1.77.38,2.06,1.17.3.77.45,1.9.45,3.4,0,.84.09,2.26.27,4.3.13,1.5.18,2.6.18,3.32,0,.48-.16.93-.49,1.34-.33.42-.97.63-1.92.63-.6,0-1.15-.25-1.66-.76"></path><path class="cls-2" d="M208.83,135.65c-.03,2.37-.04,5.37-.04,9.02v10.48c.9,0,2.21.18,3.95.55,1.31.31,2.2.44,2.69.44,2.15-.05,4.26-.5,6.32-1.35,2.06-.82,3.9-2.08,5.52-3.77,1.26-1.36,2.16-3.26,2.73-5.68.57-2.42.85-5.14.85-8.13,0-2.38-.58-4.71-1.74-6.99-1.17-2.27-2.62-4-4.36-5.19-1.55-1.02-3.16-1.74-4.84-2.12-1.68-.38-3.5-.59-5.48-.59-.89,0-2.4.13-4.48.37h-.26c-.3.72-.46,2.04-.46,3.94,0,.97-.03,1.69-.09,2.16-.18,2.21-.28,4.49-.31,6.86M211.21,117.94c3.71-.24,6.42-.36,8.15-.36,2.15,0,4.61.34,7.36,1.03,2.75.7,5.02,1.58,6.82,2.65,3.22,1.97,5.65,4.45,7.26,7.45,1.62,2.99,2.43,6.03,2.43,9.15,0,3.28-.96,6.54-2.88,9.77-1.91,3.23-4.42,5.93-7.53,8.08-2.28,1.6-4.83,2.66-7.66,3.13-2.84.48-5.98.71-9.39.71-1.07,0-2.23-.07-3.5-.21-1.25-.16-2.41-.38-3.49-.68,0,8.8.23,16.68.71,23.68.2,2.56.63,4.41,1.36,5.52.71,1.11,2.03,2.11,3.93,3.01v1.26c-2.76-.24-4.99-.41-6.76-.5-1.78-.1-3.43-.13-4.99-.13-3.59,0-7.59.21-12.01.63v-1.34c1.86-.95,3.35-2.07,4.48-3.31,1.15-1.26,1.74-2.8,1.79-4.58.12-5.98.19-14.92.19-26.83,0-4.55-.06-9.18-.19-13.9-.11-4.72-.31-9.29-.54-13.72-.1-2.15-.55-3.99-1.31-5.51-.74-1.52-2.15-2.82-4.26-3.9v-1.33c5.26.47,9.15.71,11.66.71,1.98,0,4.77-.16,8.36-.45"></path><path class="cls-2" d="M277.95,158.2v-.26l-7.9-20.8-8.43,20.8v.26c3.58.13,6.29.19,8.07.19s4.55-.07,8.26-.19M300.26,181.8c.9,2.33,2,4.21,3.27,5.66,1.31,1.43,2.9,2.56,4.81,3.4v1.43c-2.45-.42-4.57-.71-6.41-.89-1.82-.19-3.52-.28-5.08-.28-1.85,0-3.69.08-5.56.22-1.85.15-4.09.43-6.73.86v-1.27c0-.42.39-1.12,1.16-2.15,1.13-1.49,1.71-2.68,1.71-3.59,0-.59-.07-1.23-.22-1.91-.15-.7-.29-1.16-.41-1.4l-6.89-18.83c-3.77-.3-7.12-.46-10.05-.46-4.12,0-7.65.16-10.58.46l-7.9,20.44v.09c-.42.95-.67,1.7-.81,2.2-.12.51-.18,1.1-.18,1.75,0,1.39.54,2.57,1.63,3.59v1.08c-2.04-.31-3.74-.51-5.12-.63-1.37-.12-2.66-.18-3.85-.18-1.38,0-2.82.05-4.3.18-1.5.11-3.45.35-5.83.71l1.15-1.43c2.22-.77,4.12-1.92,5.69-3.4,1.6-1.5,2.92-3.54,4-6.11l21.35-51.84c.11-.24.17-.66.17-1.26,0-1.79-.62-3.57-1.84-5.33-1.21-1.76-2.85-3.36-4.88-4.8l-.35-1.06c4.6.41,8.78.62,12.54.62h3.86l4.31,10.67,21.34,53.45Z"></path><path class="cls-2" d="M327.58,191.44c-1.64.07-3.7.25-6.14.49v-1.26c1.55-.83,2.77-1.9,3.66-3.18.91-1.28,1.39-2.89,1.44-4.8.11-5.98.18-14.92.18-26.83,0-4.53-.07-9.17-.18-13.9-.11-4.71-.3-9.32-.53-13.81-.13-2.21-.52-4.13-1.18-5.75-.66-1.6-1.97-3.07-3.94-4.39v-1.07c2.69.25,4.87.42,6.5.54,1.64.11,3.21.18,4.71.18,1.14,0,3.05-.1,5.75-.28,2.32-.18,4.15-.29,5.47-.34v1.07c-1.67.83-2.86,2.19-3.59,4.08-.72,1.88-1.16,3.98-1.34,6.32-.19,2.87-.29,5.88-.31,9.03-.04,3.13-.05,7.02-.05,11.69,3.35-3.35,6.59-6.79,9.72-10.31,3.15-3.52,6-6.99,8.57-10.4.9-1.13,1.66-2.44,2.29-3.9.63-1.47.94-2.86.94-4.17,0-1.07-.18-1.91-.54-2.51l1.08-1.26c4.61.42,7.95.62,10.04.62,1.14,0,3.08-.09,5.83-.25,2.15-.14,4.22-.24,6.2-.37l-1.08,1.26c-2.51.9-5.03,2.3-7.54,4.22-2.51,1.9-4.93,4.03-7.26,6.36-2.45,2.45-4.94,5.05-7.49,7.75-2.54,2.73-5.76,6.17-9.64,10.37-.73.78-1.26,1.37-1.62,1.79,2.4,3.4,6.45,8.55,12.2,15.42,2.1,2.65,3.85,4.83,5.3,6.57,4.89,6.27,8.86,10.91,11.88,13.9,3.01,2.98,5.81,4.48,8.39,4.48.17,0,.44-.06.81-.18.37-.11.78-.21,1.26-.31.49-.08,1.14-.12,1.98-.12,1.07,0,1.76.1,2.05.3.31.21.44.46.44.78,0,.42-1.22,1.07-3.67,1.97-2.44.9-5.08,1.34-7.88,1.34s-5.23-.38-7.41-1.12c-2.19-.74-4.11-1.76-5.79-3.04-1.67-1.3-3.14-2.66-4.43-4.13-1.28-1.47-2.85-3.39-4.71-5.79-1.26-1.68-2.15-2.84-2.7-3.5-.89-1.14-1.89-2.45-3.05-3.94-2.74-3.53-5.02-6.4-6.81-8.62-1.8-2.21-3.53-4.22-5.21-6-.47.59-1.01,1.22-1.61,1.87-.18.24-.37.45-.54.62.07,6.88.29,14.63.72,23.24.18,4.12,1.97,6.96,5.38,8.52v1.26c-2.82-.24-5.08-.42-6.82-.49-1.74-.09-3.4-.13-5.02-.13-1.49,0-3.06.04-4.7.13"></path><path class="cls-2" d="M76.32,106.31H24.73c39.98,67.71-3.87,117.22-3.87,117.22h59.12s-47.61-50.39-3.65-117.22"></path><path class="cls-1" d="M212.59.05s-6.84,50.42-5.49,113.52h10.74s2.23-44.76-5.25-113.52"></path><path class="cls-2" d="M117.33,218.54c-1.01-1-1.51-2.35-1.51-4.04,0-1.29.31-2.34.92-3.15.62-.81,1.42-1.21,2.41-1.21,1.11,0,2.12.49,3.03,1.47.22.24.46.56.71.97.25.41.39.71.44.91.03.13.08.19.16.19.15,0,.22-.1.22-.3,0-.14-.02-.29-.05-.46l-.07-.35-.06-.6v-1.28c0-.34-.09-.51-.25-.51-.07,0-.11.02-.14.06l-.16.24c-.05.08-.13.13-.23.13-.08,0-.18-.03-.28-.09l-.52-.3c-.73-.42-1.58-.63-2.55-.63-1.32,0-2.46.42-3.45,1.27-.6.52-1.08,1.19-1.44,2.01-.36.82-.54,1.67-.54,2.53,0,1.57.48,2.85,1.44,3.83.96.98,2.2,1.47,3.74,1.47s2.92-.61,4-1.83c.41-.47.62-.81.62-1.03,0-.12-.05-.18-.15-.17-.07,0-.14.05-.21.13l-.51.55c-.34.37-.8.69-1.39.94-.59.25-1.15.38-1.68.38-.89,0-1.72-.37-2.47-1.13M129.36,215.1c.17-.21.26-.35.25-.43-.01-.12-.15-.28-.41-.47-.26-.19-.48-.29-.64-.29-.51,0-1.07.48-1.68,1.43v-1.32c0-.18-.05-.27-.17-.27-.05,0-.11.03-.18.06-.67.41-1.25.64-1.74.69-.07,0-.13.01-.17.02-.08.03-.12.08-.12.14,0,.11.06.16.18.16h.27c.57,0,.86.29.86.89v3.36c0,.46-.03.76-.1.9-.07.14-.21.24-.44.29-.16.03-.24.09-.24.18,0,.11.07.16.21.15.05,0,.15-.02.28-.04.17-.03.46-.04.87-.04h.91c.19,0,.34.01.44.02.21.03.33.04.37.04.15,0,.22-.05.22-.16,0-.09-.08-.15-.25-.16l-.41-.03c-.29-.03-.5-.13-.61-.32-.12-.18-.17-.5-.17-.93v-2.79c0-.34.11-.63.32-.86.21-.23.48-.35.8-.35.2,0,.42.08.64.23.19.13.31.19.34.19.07,0,.19-.11.37-.32M131.23,216.16c.07-.59.24-1.06.53-1.4.28-.34.64-.51,1.07-.51s.79.17,1.15.52c.35.35.53.73.53,1.14,0,.17-.21.25-.62.25h-2.65ZM131.92,219.01c-.49-.61-.74-1.36-.74-2.25v-.17h2.97l.53.02h.58c.34,0,.51-.08.51-.25,0-.12-.07-.33-.2-.63-.13-.3-.26-.54-.38-.72-.52-.72-1.22-1.09-2.09-1.09-.8,0-1.49.34-2.09,1.02s-.89,1.47-.89,2.38c0,.95.29,1.75.86,2.4.58.65,1.29.97,2.14.97.76,0,1.47-.26,2.15-.79.37-.28.55-.51.55-.66,0-.09-.04-.13-.11-.12-.04,0-.08.02-.12.05-.67.51-1.29.77-1.86.77-.72,0-1.33-.3-1.82-.91M142.03,218.58c0,.42-.16.76-.48,1.03-.32.26-.74.39-1.25.39-.69,0-1.29-.31-1.8-.94-.51-.63-.76-1.37-.76-2.22,0-.78.19-1.41.58-1.89.39-.48.9-.72,1.52-.72.71,0,1.32.25,1.83.74.23.22.34.56.34,1.03v2.58ZM143.98,220.32c.19-.02.28-.09.28-.2,0-.06-.03-.1-.09-.12h-.07s-.46,0-.46,0c-.36,0-.54-.29-.54-.88v-10.09c0-.11-.05-.17-.13-.17-.04,0-.09.02-.15.05-.69.41-1.3.65-1.84.72-.16.02-.24.09-.23.19,0,.06.03.1.09.12.03.01.07.02.1.02l.27-.02c.53-.03.8.45.8,1.44v3.09c-.63-.37-1.26-.56-1.89-.56-.93,0-1.71.34-2.35,1.03-.64.69-.96,1.53-.96,2.53,0,.91.27,1.67.8,2.28.53.61,1.19.92,1.98.92.42,0,.79-.08,1.12-.24.33-.16.76-.46,1.29-.92v.77c0,.26.06.39.18.39.06,0,.14-.03.24-.09.11-.06.34-.11.69-.16l.44-.07c.06-.01.19-.03.41-.05M147.24,212c.19-.21.27-.38.27-.5,0-.06-.03-.12-.08-.2l-.19-.3c-.13-.21-.26-.32-.39-.32-.11,0-.25.11-.45.32-.19.22-.29.38-.29.5s.09.28.26.5c.17.21.31.31.42.31.11,0,.26-.11.44-.32M148.4,220.57c.14,0,.21-.04.21-.13,0-.11-.09-.17-.27-.2l-.36-.04c-.26-.04-.43-.12-.51-.24-.08-.13-.12-.37-.12-.74v-5.27c0-.12-.03-.18-.1-.19l-.42.2c-.45.23-.82.4-1.12.5-.26.08-.4.16-.4.23,0,.08.09.12.29.12.28,0,.46.07.54.2.08.13.13.41.13.84v3.41c0,.31-.03.54-.1.68-.07.14-.18.24-.35.3l-.15.05c-.09.03-.14.09-.14.17,0,.1.07.14.21.14.05,0,.15,0,.28-.02.06-.01.14-.02.24-.02l.57-.03h.5c.22.01.41.02.55.03.25.02.42.04.51.04M155.48,217.66c0,.81-.2,1.46-.59,1.94-.39.49-.92.73-1.59.73-.41,0-.81-.12-1.2-.35-.39-.23-.66-.51-.81-.85l-.11-.53v-.3s0-2.46,0-2.46c0-.33.09-.59.27-.76.42-.41.89-.61,1.43-.61.68,0,1.28.33,1.8.97.53.65.79,1.39.79,2.22M155.37,219.64c.62-.71.93-1.58.93-2.61,0-.91-.26-1.66-.77-2.24-.51-.58-1.17-.87-1.98-.87-.41,0-.78.07-1.12.22-.34.14-.75.4-1.23.79v-5.72c0-.16-.04-.23-.13-.23-.04,0-.1.02-.16.05-.54.32-1.12.55-1.74.69-.17.04-.25.1-.26.2,0,.05.02.09.07.11l.06.02.49-.04c.06,0,.14.03.24.11.1.08.17.16.22.24.09.17.13.55.13,1.15v7.79c0,.4-.02.69-.06.87-.04.16-.05.27-.05.32,0,.14.05.2.14.2.07,0,.19-.14.33-.42.14-.28.24-.42.31-.43.04,0,.1.03.19.09.66.51,1.37.77,2.12.77.9,0,1.65-.35,2.27-1.06M159.53,212c.18-.21.27-.38.27-.5,0-.06-.03-.12-.08-.2l-.19-.3c-.13-.21-.26-.32-.39-.32-.1,0-.25.11-.44.32-.19.22-.29.38-.29.5s.09.28.26.5c.17.21.31.31.42.31.11,0,.26-.11.44-.32M160.69,220.57c.14,0,.21-.04.21-.13,0-.11-.09-.17-.27-.2l-.36-.04c-.26-.04-.43-.12-.51-.24-.08-.13-.12-.37-.12-.74v-5.27c0-.12-.03-.18-.1-.19l-.42.2c-.45.23-.82.4-1.12.5-.26.08-.39.16-.4.23,0,.08.09.12.29.12.28,0,.46.07.54.2.08.13.13.41.13.84v3.41c0,.31-.03.54-.1.68-.07.14-.18.24-.35.3l-.15.05c-.09.03-.14.09-.14.17,0,.1.07.14.21.14.05,0,.15,0,.28-.02.06-.01.14-.02.24-.02l.57-.03h.5c.23.01.41.02.55.03.25.02.42.04.51.04M164.87,220.53c.11,0,.17-.06.16-.17,0-.08-.08-.14-.23-.16-.53-.09-.86-.26-.97-.52-.1-.23-.15-.56-.15-.99v-9.43c0-.23-.03-.35-.11-.34-.04,0-.09.02-.16.06-.14.1-.4.23-.76.38l-.48.2c-.15.06-.31.11-.49.15-.14.04-.2.09-.2.17,0,.06.03.1.09.13.04.01.08.02.13.02l.39-.02c.33,0,.5.24.5.72v8.68c0,.25-.04.43-.12.54-.08.11-.24.2-.47.27-.15.04-.22.11-.22.19,0,.1.08.15.21.15.03,0,.13-.01.3-.04.11-.02.42-.02.92-.02h1.09c.16,0,.27,0,.35.02.09.02.16.03.2.03M167.82,212c.18-.21.27-.38.27-.5,0-.06-.03-.12-.08-.2l-.19-.3c-.13-.21-.26-.32-.39-.32-.1,0-.25.11-.44.32-.19.22-.29.38-.29.5s.09.28.26.5c.17.21.31.31.42.31.11,0,.26-.11.44-.32M168.98,220.57c.14,0,.21-.04.21-.13,0-.11-.09-.17-.27-.2l-.36-.04c-.26-.04-.43-.12-.51-.24-.08-.13-.12-.37-.12-.74v-5.27c0-.12-.03-.18-.1-.19l-.42.2c-.45.23-.82.4-1.11.5-.26.08-.4.16-.4.23,0,.08.09.12.29.12.28,0,.46.07.54.2.08.13.13.41.13.84v3.41c0,.31-.03.54-.1.68s-.18.24-.35.3l-.15.05c-.09.03-.14.09-.14.17,0,.1.07.14.21.14.05,0,.15,0,.28-.02.06-.01.14-.02.24-.02l.57-.03h.5c.22.01.41.02.55.03.25.02.42.04.51.04M174.05,214.25c0-.09.08-.12.19-.14.02-.05.05-.11.05-.13,0-.07-.02-.1-.08-.09-.04,0-.09.04-.17.09-.13.08-.3.13-.53.13h-1.67l.03-1.35c0-.14-.04-.2-.11-.2-.06,0-.16.11-.3.34-.32.52-.79,1.04-1.4,1.55-.14.11-.2.21-.2.28,0,.08.07.12.2.12h.7v3.95c0,1.25.6,1.87,1.8,1.87.35,0,.74-.1,1.15-.3.41-.2.62-.38.62-.55,0-.06-.03-.09-.09-.09l-.05.02-.41.2c-.22.11-.49.17-.81.17-.4,0-.7-.11-.92-.34-.15-.15-.22-.48-.22-.99v-3.94h1.85c.17,0,.29-.08.34-.23l.12-.29s-.1-.05-.1-.09M180.58,214.4c.11-.05.16-.11.16-.18,0-.09-.05-.14-.16-.14-.06,0-.17,0-.35.02-.16.01-.43.02-.82.02-.35,0-.59,0-.7-.02-.14-.01-.25-.02-.31-.02-.1,0-.16.04-.16.14,0,.09.06.14.19.17.33.08.55.17.67.28.11.11.17.29.17.55,0,.27-.06.57-.19.92l-1.18,3.23-1.54-3.66c-.17-.39-.25-.68-.25-.87,0-.21.16-.34.47-.39.28-.04.42-.11.42-.2,0-.11-.07-.16-.21-.15-.06,0-.15,0-.28.02-.2.02-.54.02-1.03.02-.4,0-.66,0-.79-.02-.17-.02-.3-.02-.41-.02-.02,0-.02.03-.04.03-.01.03,0,.03-.02.07l-.06.16s.02.05.07.06c.18.05.32.13.43.24.1.11.22.32.35.63l1.97,4.56c.2.46.3.78.3.93,0,.3-.14.7-.41,1.21-.27.5-.59.93-.95,1.29-.06.06-.09.11-.09.15,0,.08.18.11.53.11.31,0,.49-.01.55-.03.06-.02.11-.1.15-.23l.08-.25,2.77-7.81c.09-.26.18-.43.27-.53.09-.1.23-.19.44-.27M184.93,219.37c0-.6-.49-1.09-1.09-1.09s-1.09.49-1.09,1.09.49,1.09,1.09,1.09,1.09-.49,1.09-1.09M197.12,214.85c.64-.6.96-1.32.96-2.18,0-.8-.3-1.48-.91-2.04-.68-.62-1.75-.93-3.23-.93-.24,0-.51.01-.8.03l-.87.05c-.23.02-.53.02-.89.02-.76,0-1.42-.02-2-.05-.19-.02-.31-.02-.37-.02-.22,0-.34.08-.34.23,0,.14.1.22.29.25.54.06.92.22,1.15.5.23.28.34.71.34,1.31v6.02c0,.77-.07,1.3-.2,1.59-.13.29-.4.48-.8.57-.14.03-.2.11-.2.23,0,.13.09.19.26.19.12,0,.28-.01.49-.04.64-.08,1.15-.11,1.52-.11h.31s1.21.04,1.21.04c.18,0,.35,0,.52.02.1.01.18.02.23.02.2,0,.3-.07.3-.21s-.07-.22-.21-.23l-.34-.03c-.57-.05-.93-.27-1.09-.65-.13-.32-.2-.97-.2-1.96v-5.93c0-.49.1-.82.29-.99.2-.17.58-.25,1.15-.25.74,0,1.34.25,1.81.75.47.5.7,1.15.7,1.94,0,.64-.2,1.16-.61,1.57-.41.41-.92.61-1.55.61-.27,0-.54-.04-.83-.13-.05-.02-.09-.02-.13-.02-.13,0-.2.07-.2.21s.19.26.57.37c.38.1.82.16,1.32.16.92,0,1.7-.3,2.34-.89M203.6,215.1c.17-.21.26-.35.25-.43-.01-.12-.15-.28-.41-.47-.26-.19-.48-.29-.64-.29-.51,0-1.07.48-1.67,1.43v-1.32c0-.18-.05-.27-.17-.27-.05,0-.11.03-.18.06-.67.41-1.25.64-1.74.69-.07,0-.13.01-.17.02-.08.03-.12.08-.12.14,0,.11.06.16.18.16h.27c.57,0,.86.29.86.89v3.36c0,.46-.03.76-.1.9-.07.14-.21.24-.43.29-.16.03-.24.09-.24.18,0,.11.07.16.21.15.05,0,.15-.02.28-.04.17-.03.46-.04.87-.04h.91c.19,0,.34.01.44.02.21.03.33.04.37.04.15,0,.22-.05.22-.16,0-.09-.08-.15-.25-.16l-.41-.03c-.29-.03-.5-.13-.61-.32-.12-.18-.18-.5-.18-.93v-2.79c0-.34.11-.63.32-.86.21-.23.48-.35.8-.35.2,0,.42.08.64.23.19.13.31.19.34.19.07,0,.2-.11.37-.32M210.12,217.71c0,.81-.19,1.46-.56,1.93-.37.47-.88.71-1.53.71-.74,0-1.36-.34-1.85-1.01-.5-.67-.75-1.5-.75-2.5,0-.78.2-1.41.6-1.9.4-.48.92-.72,1.57-.72.74,0,1.34.32,1.81.97.47.65.7,1.49.7,2.51M210.23,219.72c.66-.65.99-1.46.99-2.45,0-.91-.34-1.7-1.01-2.36-.67-.66-1.48-.99-2.42-.99s-1.79.33-2.46,1c-.68.67-1.02,1.47-1.02,2.42s.32,1.78.96,2.41c.64.63,1.45.94,2.45.94s1.85-.32,2.51-.97M217.61,209.71c.02-.06.02-.12.02-.18,0-.2-.23-.3-.68-.3s-.95.17-1.44.52-.91.82-1.26,1.41c-.43.72-.69,1.72-.77,2.99h-.74c-.14,0-.23.04-.3.13-.07.09-.1.23-.11.44,0,.07.08.1.24.1h.91v4.4c0,.31-.03.54-.1.68-.07.14-.18.24-.35.29l-.15.05c-.09.03-.14.08-.14.15,0,.11.07.16.21.16.06,0,.16,0,.28-.03.2-.03.64-.04,1.31-.04.16,0,.32,0,.48.02.26.03.42.04.48.04.15,0,.22-.05.22-.14,0-.1-.1-.15-.29-.17-.37-.03-.6-.11-.72-.25-.11-.14-.17-.41-.17-.82v-4.35h1.48c.13-.01.23-.11.3-.29l.13-.32c.03-.09.05-.15.05-.18,0-.08-.03-.12-.11-.12-.05,0-.1.02-.13.05l-.11.12s-.15.06-.33.06h-1.28l-.02-.83c0-2.21.58-3.32,1.74-3.32.44,0,.72.13.83.39.04.08.08.13.13.13.1,0,.2-.17.29-.52l.09-.29ZM217.92,216.16c.07-.59.24-1.06.53-1.4.28-.34.64-.51,1.07-.51s.79.17,1.15.52c.35.35.53.73.53,1.14,0,.17-.21.25-.62.25h-2.65ZM218.6,219.01c-.49-.61-.74-1.36-.74-2.25v-.17h2.97l.53.02h.58c.34,0,.51-.08.51-.25,0-.12-.07-.33-.2-.63-.13-.3-.26-.54-.38-.72-.52-.72-1.22-1.09-2.09-1.09-.8,0-1.49.34-2.09,1.02s-.89,1.47-.89,2.38c0,.95.29,1.75.86,2.4.58.65,1.29.97,2.14.97.76,0,1.47-.26,2.15-.79.37-.28.55-.51.55-.66,0-.09-.04-.13-.11-.12-.04,0-.08.02-.12.05-.67.51-1.29.77-1.86.77-.72,0-1.33-.3-1.82-.91M224.67,215.94c-.22-.18-.33-.41-.33-.7,0-.27.1-.5.3-.68.2-.18.46-.27.77-.27.79,0,1.33.4,1.61,1.19.05.14.11.21.18.2.12,0,.18-.11.18-.31,0-.09,0-.19-.02-.3l-.03-.31c-.01-.07-.02-.15-.02-.22v-.13c0-.11-.07-.19-.21-.24l-.34-.11c-.3-.11-.65-.16-1.06-.16-.59,0-1.09.17-1.49.52-.4.34-.6.76-.6,1.26,0,.42.13.77.39,1.06.26.29.7.57,1.33.84l.69.31c.59.26.88.66.88,1.19,0,.35-.12.64-.36.86-.24.23-.56.34-.94.34-.44,0-.82-.16-1.14-.49-.32-.32-.53-.77-.64-1.35-.03-.16-.09-.24-.19-.23-.1,0-.15.08-.18.22l-.02.23.02,1v.33c.02.12.08.19.2.2l.2.02s.11.03.23.09c.51.25.98.37,1.41.37.6,0,1.13-.21,1.56-.63.44-.42.65-.92.65-1.51,0-.48-.13-.86-.38-1.14-.25-.28-.71-.55-1.36-.81-.66-.26-1.09-.47-1.31-.65M230.08,215.94c-.22-.18-.32-.41-.32-.7,0-.27.1-.5.3-.68.2-.18.46-.27.77-.27.79,0,1.33.4,1.61,1.19.05.14.11.21.18.2.12,0,.18-.11.18-.31,0-.09,0-.19-.02-.3l-.03-.31c-.01-.07-.02-.15-.02-.22v-.13c0-.11-.07-.19-.21-.24l-.34-.11c-.3-.11-.65-.16-1.06-.16-.59,0-1.09.17-1.49.52-.4.34-.6.76-.6,1.26,0,.42.13.77.39,1.06.26.29.7.57,1.33.84l.69.31c.59.26.88.66.88,1.19,0,.35-.12.64-.36.86-.24.23-.56.34-.94.34-.44,0-.82-.16-1.14-.49-.32-.32-.53-.77-.64-1.35-.03-.16-.1-.24-.19-.23-.1,0-.16.08-.18.22l-.02.23.02,1v.33c.02.12.08.19.2.2l.2.02s.11.03.23.09c.51.25.98.37,1.41.37.61,0,1.13-.21,1.56-.63.44-.42.65-.92.65-1.51,0-.48-.13-.86-.38-1.14-.25-.28-.71-.55-1.36-.81-.66-.26-1.09-.47-1.31-.65M236.4,212c.18-.21.27-.38.27-.5,0-.06-.03-.12-.08-.2l-.19-.3c-.13-.21-.26-.32-.39-.32-.1,0-.25.11-.45.32-.19.22-.29.38-.29.5s.09.28.26.5c.17.21.31.31.42.31s.26-.11.44-.32M237.56,220.57c.14,0,.21-.04.21-.13,0-.11-.09-.17-.27-.2l-.36-.04c-.26-.04-.43-.12-.51-.24-.08-.13-.12-.37-.12-.74v-5.27c0-.12-.03-.18-.1-.19l-.42.2c-.45.23-.82.4-1.12.5-.26.08-.4.16-.4.23,0,.08.09.12.29.12.28,0,.46.07.54.2s.13.41.13.84v3.41c0,.31-.03.54-.1.68-.07.14-.18.24-.35.3l-.15.05c-.09.03-.14.09-.14.17,0,.1.07.14.21.14.05,0,.15,0,.28-.02.06-.01.14-.02.24-.02l.57-.03h.5c.22.01.41.02.55.03.25.02.42.04.51.04M244.38,217.71c0,.81-.19,1.46-.56,1.93-.37.47-.88.71-1.53.71-.74,0-1.36-.34-1.86-1.01-.5-.67-.75-1.5-.75-2.5,0-.78.2-1.41.6-1.9.4-.48.92-.72,1.57-.72.74,0,1.34.32,1.81.97.47.65.7,1.49.7,2.51M244.5,219.72c.66-.65.99-1.46.99-2.45,0-.91-.34-1.7-1.01-2.36-.67-.66-1.48-.99-2.42-.99s-1.79.33-2.47,1c-.68.67-1.02,1.47-1.02,2.42s.32,1.78.96,2.41,1.45.94,2.45.94,1.85-.32,2.51-.97M254.42,220.54c.18,0,.26-.05.26-.17,0-.08-.08-.13-.22-.15l-.33-.05c-.38-.06-.6-.26-.66-.6l-.02-.38v-.24s0-1.87,0-1.87c0-.96-.17-1.68-.5-2.15-.49-.68-1.15-1.03-1.98-1.03-.75,0-1.48.42-2.18,1.25v-.88c0-.11,0-.21,0-.3.01-.15-.03-.23-.13-.23-.05,0-.11.02-.19.06-.04.02-.14.07-.31.15l-.42.2c-.32.15-.66.26-1.01.32-.14.03-.2.08-.2.15,0,.05.02.09.07.11.04.02.08.03.13.03h.34c.25,0,.41.06.5.19.09.13.13.38.13.75v3.53c0,.3-.05.52-.14.66-.09.14-.27.25-.54.34-.09.04-.14.09-.15.15,0,.09.04.13.14.13.05,0,.15,0,.31-.03.16-.02.66-.04,1.49-.04.39,0,.64,0,.74.02.18.03.31.04.4.04.12,0,.18-.05.18-.14s-.09-.15-.26-.17c-.7-.04-1.06-.28-1.09-.72v-.39s-.02-.24-.02-.24v-2.99c0-.33.17-.62.51-.88.34-.26.72-.38,1.16-.38.62,0,1.09.2,1.43.59.33.39.5.95.5,1.68v2.7c0,.32-.1.51-.31.56l-.23.06c-.09.02-.14.07-.14.15,0,.06.02.1.05.12l.11.02.23-.02h.29l.77-.02c.46,0,.78.01.95.04.15.02.25.03.31.03M259.15,218.9c0,.39-.09.68-.27.86-.3.29-.66.43-1.1.43-.36,0-.64-.1-.85-.32-.21-.21-.31-.49-.31-.85,0-.46.22-.83.66-1.13.44-.29,1.07-.48,1.87-.55v1.55ZM261.5,220.19c0-.08-.04-.11-.13-.11-.03,0-.09.01-.19.03-.05,0-.11.01-.19.01-.28,0-.47-.1-.59-.31-.12-.21-.18-.55-.18-1.03v-3.06c0-.57-.2-1.02-.59-1.33-.39-.32-.94-.47-1.65-.47-.78,0-1.4.25-1.87.76-.35.37-.52.72-.52,1.04,0,.13.1.24.3.34.2.1.42.16.66.16.11,0,.16-.05.16-.14,0-.07-.02-.15-.05-.25-.07-.22-.1-.42-.1-.59,0-.58.34-.87,1.03-.87.51,0,.92.16,1.22.47.22.23.34.64.34,1.24v.97c-1.3.2-2.22.46-2.77.79-.55.33-.82.8-.82,1.4,0,.44.14.8.43,1.06.29.26.68.39,1.17.39.65,0,1.35-.29,2.1-.86.34.53.73.8,1.16.8.23,0,.47-.05.71-.15.24-.1.36-.19.37-.28M265.44,220.53c.11,0,.17-.06.16-.17,0-.08-.08-.14-.23-.16-.53-.09-.86-.26-.97-.52-.1-.23-.15-.56-.15-.99v-9.43c0-.23-.03-.35-.11-.34-.04,0-.09.02-.16.06-.14.1-.4.23-.76.38l-.48.2c-.15.06-.31.11-.49.15-.14.04-.2.09-.2.17,0,.06.03.1.09.13.04.01.08.02.13.02l.39-.02c.33,0,.5.24.5.72v8.68c0,.25-.04.43-.12.54-.08.11-.24.2-.47.27-.15.04-.22.11-.22.19,0,.1.08.15.21.15.03,0,.13-.01.3-.04.11-.02.42-.02.92-.02h1.09c.16,0,.27,0,.35.02.09.02.16.03.2.03M268.39,212c.18-.21.27-.38.27-.5,0-.06-.03-.12-.08-.2l-.19-.3c-.13-.21-.26-.32-.39-.32-.1,0-.25.11-.44.32-.19.22-.29.38-.29.5s.09.28.26.5c.17.21.31.31.42.31.11,0,.26-.11.44-.32M269.55,220.57c.14,0,.21-.04.21-.13,0-.11-.09-.17-.27-.2l-.36-.04c-.26-.04-.43-.12-.51-.24-.08-.13-.12-.37-.12-.74v-5.27c0-.12-.03-.18-.1-.19l-.42.2c-.45.23-.82.4-1.11.5-.26.08-.4.16-.4.23,0,.08.09.12.29.12.28,0,.46.07.54.2.08.13.13.41.13.84v3.41c0,.31-.03.54-.1.68-.07.14-.18.24-.35.3l-.15.05c-.09.03-.14.09-.14.17,0,.1.07.14.21.14.05,0,.15,0,.28-.02.06-.01.14-.02.24-.02l.57-.03h.5c.22.01.41.02.55.03.25.02.42.04.51.04M271.71,215.94c-.22-.18-.32-.41-.32-.7,0-.27.1-.5.3-.68.2-.18.46-.27.77-.27.79,0,1.33.4,1.61,1.19.05.14.11.21.18.2.12,0,.18-.11.18-.31,0-.09,0-.19-.02-.3l-.03-.31c-.01-.07-.02-.15-.02-.22v-.13c0-.11-.07-.19-.21-.24l-.34-.11c-.3-.11-.65-.16-1.06-.16-.59,0-1.09.17-1.49.52-.4.34-.6.76-.6,1.26,0,.42.13.77.39,1.06.26.29.7.57,1.33.84l.69.31c.59.26.88.66.88,1.19,0,.35-.12.64-.37.86-.24.23-.55.34-.93.34-.44,0-.82-.16-1.14-.49-.32-.32-.53-.77-.64-1.35-.03-.16-.1-.24-.19-.23-.1,0-.15.08-.17.22l-.02.23.02,1v.33c.02.12.08.19.2.2l.2.02s.11.03.23.09c.51.25.98.37,1.41.37.61,0,1.13-.21,1.56-.63.44-.42.65-.92.65-1.51,0-.48-.13-.86-.38-1.14-.25-.28-.7-.55-1.36-.81-.66-.26-1.09-.47-1.31-.65M287.54,220.54c.13,0,.19-.04.19-.14,0-.1-.06-.16-.19-.17-.36-.04-.62-.15-.78-.34-.16-.19-.23-.49-.23-.89v-2.52c0-.81-.2-1.44-.59-1.89-.39-.45-.94-.68-1.65-.68-.83,0-1.55.39-2.15,1.17-.26-.43-.53-.73-.82-.91-.29-.18-.67-.27-1.13-.27-.79,0-1.48.35-2.06,1.06v-.95c0-.19-.04-.29-.12-.29-.04,0-.16.06-.37.17-.46.26-.96.46-1.5.6-.13.04-.19.09-.19.16,0,.04.02.06.05.08.04.03.08.04.13.04h.34c.22,0,.37.07.45.21.08.14.12.4.12.77v3.5c0,.33-.03.56-.1.67-.07.11-.22.21-.46.28-.11.04-.17.1-.17.18,0,.1.07.14.2.14.06,0,.15-.02.29-.04.11-.01.2-.02.27-.02h.53s.53,0,.53,0c.32,0,.54,0,.65.02.18.02.3.03.38.04.13,0,.19-.04.19-.14,0-.1-.08-.16-.24-.18-.35-.04-.61-.14-.75-.3-.15-.16-.22-.4-.22-.74v-3.36c0-.38.14-.69.43-.93.28-.24.66-.35,1.11-.35.5,0,.89.16,1.17.47.28.32.43.75.43,1.29v2.9c0,.41-.03.67-.08.76-.05.1-.22.19-.49.29-.09.03-.14.08-.14.14,0,.09.06.14.19.14.06,0,.14,0,.24-.02.19-.03.64-.04,1.36-.04.2,0,.45.02.74.05.11.01.2.02.25.02.15,0,.23-.05.23-.14,0-.1-.09-.16-.26-.17-.37-.03-.62-.13-.75-.28-.13-.16-.2-.43-.2-.83v-2.83c0-.17-.02-.35-.05-.54-.02-.08-.02-.14-.02-.2,0-.24.16-.48.49-.7.32-.22.66-.33,1.02-.33.54,0,.95.2,1.25.59.3.39.45.94.45,1.64v2.82c0,.19-.04.32-.11.41-.07.08-.22.17-.45.26-.09.04-.14.09-.13.14,0,.1.08.15.21.15.04,0,.12,0,.23-.03.17-.02.6-.04,1.3-.04.35,0,.61.01.78.04.1.02.19.02.24.02M292.6,219.37c0-.6-.49-1.09-1.09-1.09s-1.09.49-1.09,1.09.49,1.09,1.09,1.09,1.09-.49,1.09-1.09M302.37,215.77c0,.11-.1.16-.3.16h-2.31c-.38,0-.56-.09-.56-.26,0-.06.02-.13.05-.2l.09-.19.91-2.09.15-.33c.17-.37.28-.55.34-.55.1,0,.28.29.52.86l1.02,2.39.04.09c.03.06.04.11.04.13M307.08,220.59c.12,0,.18-.07.18-.21,0-.13-.05-.21-.14-.22-.38-.07-.69-.2-.93-.41-.24-.2-.45-.51-.63-.92l-3.56-8.17-.19-.42c-.2-.44-.35-.66-.43-.66-.06,0-.17.2-.34.59v-.02l-.38.73-.73,1.49c-.07.15-.19.42-.36.8l-2.14,4.92c-.33.76-.58,1.26-.75,1.5-.17.24-.4.4-.68.49-.15.05-.22.13-.22.24,0,.13.07.19.22.19.1,0,.35-.02.76-.06.55-.05.95-.08,1.19-.08.27,0,.58.03.92.1.17.03.31.05.4.05.18,0,.27-.07.28-.21,0-.13-.09-.2-.29-.23-.92-.1-1.38-.48-1.38-1.14,0-.18.04-.35.11-.52l.24-.6c.25-.6.46-.94.66-1.03l.7-.13h1.06c1.03,0,1.63.02,1.8.07s.32.22.46.52c.45.99.68,1.63.68,1.93,0,.21-.08.41-.25.6-.16.19-.37.32-.62.39-.11.04-.17.09-.17.17,0,.15.07.22.22.22.06,0,.13-.01.2-.03.32-.08.93-.12,1.83-.12s1.54.04,1.94.13c.13.03.23.04.3.05M312.89,219.81c.25-.22.38-.39.38-.51,0-.08-.04-.12-.12-.11-.06,0-.12.04-.19.09-.56.48-1.13.71-1.7.71-.72,0-1.33-.3-1.82-.9-.5-.6-.75-1.34-.75-2.21,0-.74.16-1.34.48-1.8.32-.47.74-.7,1.25-.7.37,0,.75.11,1.14.33.39.22.67.48.84.78.09.16.16.24.22.23.13-.01.19-.15.19-.43l-.05-.6v-.23c0-.14-.17-.27-.52-.39-.35-.11-.75-.17-1.2-.17-.94,0-1.75.35-2.41,1.05-.66.7-1,1.55-1,2.55,0,.9.28,1.65.84,2.26.56.61,1.26.91,2.09.91.91,0,1.68-.29,2.33-.87M319.28,219.81c.25-.22.38-.39.38-.51,0-.08-.04-.12-.12-.11-.06,0-.12.04-.19.09-.56.48-1.13.71-1.7.71-.72,0-1.33-.3-1.82-.9-.5-.6-.75-1.34-.75-2.21,0-.74.16-1.34.48-1.8.32-.47.74-.7,1.25-.7.37,0,.75.11,1.14.33.39.22.67.48.84.78.09.16.16.24.22.23.13-.01.19-.15.19-.43l-.05-.6v-.23c0-.14-.17-.27-.52-.39-.35-.11-.75-.17-1.2-.17-.94,0-1.75.35-2.41,1.05s-1,1.55-1,2.55c0,.9.28,1.65.84,2.26.56.61,1.26.91,2.09.91.91,0,1.69-.29,2.33-.87M326.21,217.71c0,.81-.19,1.46-.56,1.93-.37.47-.88.71-1.53.71-.74,0-1.36-.34-1.86-1.01-.5-.67-.75-1.5-.75-2.5,0-.78.2-1.41.6-1.9.4-.48.92-.72,1.57-.72.74,0,1.34.32,1.81.97.47.65.7,1.49.7,2.51M326.32,219.72c.66-.65.99-1.46.99-2.45,0-.91-.34-1.7-1.01-2.36-.67-.66-1.48-.99-2.42-.99s-1.79.33-2.47,1c-.68.67-1.02,1.47-1.02,2.42s.32,1.78.96,2.41c.64.63,1.45.94,2.45.94s1.85-.32,2.51-.97M335.93,220.21c0-.08-.07-.12-.18-.12h-.11s-.13,0-.13,0c-.27,0-.44-.06-.53-.19-.09-.13-.13-.39-.13-.79v-5.08c0-.19-.05-.29-.16-.28-.05,0-.11.02-.19.04-.23.07-.43.11-.61.13l-.55.02-.26.02c-.19,0-.28.07-.28.18,0,.1.08.15.25.15.28,0,.47.05.57.16.1.11.15.31.15.61v3.74c0,.35-.18.65-.54.92-.36.27-.77.4-1.23.4-.35,0-.67-.11-.97-.33-.3-.22-.5-.5-.61-.83l-.13-.95v-.25l.03-3.5v-.12c0-.25-.07-.37-.21-.37-.04,0-.1.01-.17.03-.26.06-.45.1-.58.11l-.59.02c-.32.02-.48.07-.48.16,0,.1.06.15.19.16.3.02.5.08.61.18.11.1.16.29.16.56v3.11c0,.81.2,1.44.61,1.89.41.45.98.68,1.71.68.87,0,1.6-.39,2.21-1.17v.3c0,.49.09.73.26.73.07,0,.16-.02.29-.05.1-.03.32-.05.66-.06l.49-.03c.31-.02.46-.08.45-.19M344.68,220.54c.18,0,.26-.05.26-.17,0-.08-.08-.13-.22-.15l-.33-.05c-.38-.06-.6-.26-.66-.6l-.02-.38v-.24s0-1.87,0-1.87c0-.96-.17-1.68-.5-2.15-.49-.68-1.15-1.03-1.98-1.03-.75,0-1.48.42-2.18,1.25v-.88c0-.11,0-.21,0-.3.01-.15-.03-.23-.13-.23-.05,0-.11.02-.19.06-.04.02-.14.07-.3.15l-.42.2c-.32.15-.66.26-1.01.32-.14.03-.2.08-.2.15,0,.05.02.09.07.11.04.02.08.03.13.03h.34c.25,0,.41.06.5.19.09.13.13.38.13.75v3.53c0,.3-.04.52-.14.66-.09.14-.27.25-.54.34-.09.04-.14.09-.15.15,0,.09.04.13.14.13.05,0,.15,0,.31-.03.16-.02.66-.04,1.49-.04.39,0,.64,0,.74.02.18.03.31.04.4.04.12,0,.18-.05.18-.14s-.09-.15-.26-.17c-.7-.04-1.06-.28-1.09-.72v-.39s-.02-.24-.02-.24v-2.99c0-.33.17-.62.51-.88.34-.26.72-.38,1.16-.38.62,0,1.09.2,1.43.59.33.39.5.95.5,1.68v2.7c0,.32-.1.51-.31.56l-.23.06c-.09.02-.14.07-.14.15,0,.06.02.1.05.12l.11.02.23-.02h.3l.77-.02c.46,0,.78.01.95.04.15.02.25.03.3.03M347.58,218.8v-3.94h1.86c.17,0,.29-.08.34-.23l.18-.45c.05-.11.07-.17.07-.2,0-.07-.02-.1-.08-.09-.04,0-.09.04-.17.09-.13.08-.3.13-.53.13h-1.67l.03-1.35c0-.14-.04-.2-.11-.2-.06,0-.16.11-.3.34-.32.52-.79,1.04-1.4,1.55-.14.11-.2.21-.2.28,0,.08.07.12.2.12h.7v3.95c0,1.25.6,1.87,1.8,1.87.35,0,.74-.1,1.15-.3.41-.2.62-.38.62-.55,0-.06-.03-.09-.09-.09l-.05.02-.41.2c-.22.11-.49.17-.81.17-.4,0-.7-.11-.92-.34-.15-.15-.22-.48-.22-.99M354.51,218.9c0,.39-.09.68-.27.86-.3.29-.66.43-1.1.43-.36,0-.64-.1-.85-.32-.21-.21-.32-.49-.32-.85,0-.46.22-.83.66-1.13.44-.29,1.06-.48,1.87-.55v1.55ZM356.86,220.19c0-.08-.04-.11-.13-.11-.03,0-.09.01-.19.03-.05,0-.11.01-.19.01-.28,0-.47-.1-.59-.31-.12-.21-.18-.55-.18-1.03v-3.06c0-.57-.2-1.02-.59-1.33-.39-.32-.94-.47-1.65-.47-.78,0-1.4.25-1.87.76-.35.37-.52.72-.52,1.04,0,.13.1.24.3.34.2.1.42.16.67.16.11,0,.16-.05.15-.14,0-.07-.02-.15-.05-.25-.07-.22-.1-.42-.1-.59,0-.58.34-.87,1.03-.87.51,0,.92.16,1.22.47.22.23.34.64.34,1.24v.97c-1.3.2-2.23.46-2.77.79-.55.33-.82.8-.82,1.4,0,.44.14.8.43,1.06.29.26.68.39,1.17.39.64,0,1.35-.29,2.1-.86.34.53.73.8,1.16.8.23,0,.47-.05.71-.15.24-.1.36-.19.37-.28M363.69,217.66c0,.81-.2,1.46-.59,1.94-.4.49-.93.73-1.59.73-.41,0-.81-.12-1.2-.35-.39-.23-.66-.51-.81-.85l-.11-.53v-.3s0-2.46,0-2.46c0-.33.09-.59.26-.76.42-.41.9-.61,1.44-.61.68,0,1.28.33,1.8.97.52.65.79,1.39.79,2.22M363.58,219.64c.62-.71.93-1.58.93-2.61,0-.91-.26-1.66-.77-2.24-.51-.58-1.17-.87-1.98-.87-.41,0-.78.07-1.12.22-.34.14-.75.4-1.23.79v-5.72c0-.16-.04-.23-.13-.23-.04,0-.1.02-.16.05-.54.32-1.12.55-1.74.69-.17.04-.25.1-.26.2,0,.05.02.09.07.11l.06.02.49-.04c.06,0,.14.03.24.11.1.08.18.16.22.24.09.17.13.55.13,1.15v7.79c0,.4-.02.69-.06.87-.04.16-.05.27-.05.32,0,.14.05.2.14.2.07,0,.19-.14.33-.42.14-.28.24-.42.31-.43.04,0,.1.03.19.09.66.51,1.36.77,2.12.77.9,0,1.65-.35,2.27-1.06M367.74,212c.18-.21.27-.38.27-.5,0-.06-.03-.12-.08-.2l-.19-.3c-.13-.21-.26-.32-.39-.32-.1,0-.25.11-.44.32-.19.22-.29.38-.29.5s.09.28.26.5c.17.21.31.31.42.31.11,0,.26-.11.44-.32M368.9,220.57c.14,0,.21-.04.21-.13,0-.11-.09-.17-.27-.2l-.36-.04c-.26-.04-.43-.12-.51-.24-.08-.13-.12-.37-.12-.74v-5.27c0-.12-.03-.18-.1-.19l-.42.2c-.45.23-.82.4-1.12.5-.26.08-.39.16-.4.23,0,.08.09.12.29.12.28,0,.46.07.54.2.08.13.13.41.13.84v3.41c0,.31-.03.54-.1.68s-.18.24-.35.3l-.15.05c-.09.03-.14.09-.14.17,0,.1.07.14.21.14.05,0,.15,0,.28-.02.06-.01.14-.02.24-.02l.57-.03h.5c.22.01.41.02.55.03.25.02.42.04.51.04M373.08,220.53c.11,0,.17-.06.17-.17,0-.08-.08-.14-.23-.16-.53-.09-.86-.26-.97-.52-.1-.23-.15-.56-.15-.99v-9.43c0-.23-.03-.35-.11-.34-.04,0-.09.02-.16.06-.14.1-.4.23-.76.38l-.48.2c-.15.06-.31.11-.49.15-.14.04-.2.09-.2.17,0,.06.03.1.09.13.04.01.08.02.13.02l.39-.02c.33,0,.5.24.5.72v8.68c0,.25-.04.43-.12.54-.08.11-.24.2-.47.27-.15.04-.22.11-.22.19,0,.1.08.15.21.15.03,0,.13-.01.3-.04.12-.02.42-.02.92-.02h1.09c.16,0,.27,0,.35.02.09.02.16.03.2.03M376.09,212c.18-.21.27-.38.27-.5,0-.06-.03-.12-.08-.2l-.19-.3c-.13-.21-.26-.32-.39-.32-.1,0-.25.11-.44.32-.19.22-.29.38-.29.5s.09.28.26.5c.17.21.31.31.42.31.11,0,.26-.11.44-.32M377.25,220.57c.14,0,.21-.04.21-.13,0-.11-.09-.17-.27-.2l-.36-.04c-.26-.04-.43-.12-.51-.24-.08-.13-.12-.37-.12-.74v-5.27c0-.12-.03-.18-.1-.19l-.42.2c-.45.23-.82.4-1.12.5-.26.08-.39.16-.4.23,0,.08.09.12.29.12.28,0,.46.07.54.2.08.13.13.41.13.84v3.41c0,.31-.03.54-.1.68s-.18.24-.35.3l-.15.05c-.09.03-.14.09-.14.17,0,.1.07.14.21.14.05,0,.15,0,.28-.02.06-.01.14-.02.24-.02l.57-.03h.5c.22.01.41.02.55.03.25.02.42.04.51.04M381.88,214.25c0-.09.08-.12.19-.14.02-.05.05-.11.05-.13,0-.07-.02-.1-.08-.09-.04,0-.09.04-.17.09-.13.08-.3.13-.53.13h-1.67l.03-1.35c0-.14-.04-.2-.11-.2-.06,0-.16.11-.3.34-.32.52-.79,1.04-1.4,1.55-.14.11-.2.21-.2.28,0,.08.07.12.2.12h.7v3.95c0,1.25.6,1.87,1.8,1.87.35,0,.74-.1,1.15-.3.41-.2.62-.38.62-.55,0-.06-.03-.09-.09-.09l-.05.02-.41.2c-.22.11-.49.17-.81.17-.4,0-.7-.11-.92-.34-.15-.15-.22-.48-.22-.99v-3.94h1.86c.17,0,.29-.08.34-.23l.12-.29s-.1-.05-.1-.09M388.57,214.22c0-.09-.05-.14-.16-.14-.06,0-.17,0-.35.02-.16.01-.43.02-.82.02-.35,0-.59,0-.7-.02-.14-.01-.25-.02-.31-.02-.1,0-.16.04-.16.14,0,.09.06.14.19.17.33.08.55.17.67.28.11.11.17.29.17.55,0,.27-.06.57-.19.92l-1.18,3.23-1.54-3.66c-.17-.39-.25-.68-.25-.87,0-.21.16-.34.47-.39.28-.04.42-.11.42-.2,0-.11-.07-.16-.21-.15-.06,0-.15,0-.28.02-.2.02-.54.02-1.03.02-.4,0-.66,0-.79-.02-.17-.02-.31-.02-.41-.02-.03,0-.02.03-.04.03-.01.03,0,.03-.02.07l-.06.16s.02.05.07.06c.18.05.33.13.43.24.1.11.22.32.35.63l1.96,4.56c.2.46.3.78.3.93,0,.3-.14.7-.41,1.21s-.59.93-.95,1.29c-.06.06-.09.11-.09.15,0,.08.18.11.53.11.31,0,.49-.01.55-.03.06-.02.11-.1.15-.23l.08-.25,2.77-7.81c.09-.26.19-.43.27-.53.09-.1.23-.19.43-.27.11-.05.16-.11.16-.18"></path></g></g></svg>